<svg width="500" height="500" viewBox="0 0 500 500" fill="none" xmlns="http://www.w3.org/2000/svg">
<path d="M80.4943 107C80.4943 102.029 84.5237 98 89.4943 98H475.676C483.241 98 487.431 106.766 482.68 112.652L424.201 185.109C422.492 187.226 419.918 188.456 417.197 188.456H89.4943C84.5237 188.456 80.4943 184.427 80.4943 179.456V107Z" fill="white"/>
<path d="M107.123 225.079L129.788 206.701C131.391 205.401 133.392 204.692 135.456 204.692H247.827H388.027C395.888 204.692 399.971 214.065 394.617 219.821L330.862 288.369C329.198 290.159 326.877 291.194 324.433 291.238L193.224 293.587C190.889 293.629 188.662 294.577 187.013 296.23L95.8658 387.592C90.1991 393.272 80.4943 389.259 80.4943 381.236V253.166C80.4943 250.623 81.5702 248.199 83.456 246.493L107.123 225.079Z" fill="white"/>
<path d="M191.025 302.93C191.684 302.263 192.817 302.789 192.732 303.724L189.651 337.573C189.624 337.879 189.457 338.155 189.2 338.322L104.483 393.327C103.48 393.979 102.386 392.637 103.227 391.786L191.025 302.93Z" fill="white"/>
</svg>
