<svg width="500" height="500" viewBox="0 0 500 500" fill="none" xmlns="http://www.w3.org/2000/svg">
<path d="M83.2091 109C83.2091 104.029 87.2386 100 92.2091 100H478.39C485.954 100 490.144 108.766 485.393 114.652L426.915 187.108C425.206 189.225 422.632 190.456 419.911 190.456H92.2091C87.2386 190.456 83.2091 186.427 83.2091 181.456V109Z" fill="black"/>
<path d="M109.838 227.078L132.502 208.701C134.106 207.401 136.107 206.692 138.171 206.692H250.541H390.74C398.602 206.692 402.685 216.064 397.33 221.821L333.576 290.368C331.912 292.158 329.591 293.194 327.147 293.237L195.938 295.587C193.604 295.629 191.377 296.576 189.728 298.229L98.5806 389.591C92.914 395.271 83.2091 391.258 83.2091 383.235V255.166C83.2091 252.623 84.285 250.198 86.1708 248.492L109.838 227.078Z" fill="black"/>
<path d="M193.739 304.93C194.399 304.262 195.532 304.789 195.446 305.723L192.366 339.573C192.338 339.878 192.172 340.154 191.915 340.321L107.198 395.326C106.194 395.978 105.101 394.636 105.942 393.784L193.739 304.93Z" fill="black"/>
</svg>
